<svg width="280" height="64" viewBox="0 0 280 64" fill="none" xmlns="http://www.w3.org/2000/svg">
<style type="text/css">
	.st0{fill:#00A4A6;}
	.st1{fill:#00ED94;}
	.st2{fill:#22577A;}
  @media (prefers-color-scheme:dark){.st2{fill:#FFFFFF;}}
</style>
<path class="st0" d="M58.5367 48.093C57.9892 48.0934 57.4469 47.9858 56.941 47.7765C56.435 47.5672 55.9752 47.2603 55.5879 46.8732C55.2006 46.4862 54.8933 46.0266 54.6837 45.5207C54.4741 45.0149 54.3662 44.4727 54.3662 43.9252V20.4809C54.3662 19.3755 54.8053 18.3154 55.587 17.5337C56.3686 16.7521 57.4287 16.313 58.5341 16.313C59.6395 16.313 60.6996 16.7521 61.4812 17.5337C62.2629 18.3154 62.702 19.3755 62.702 20.4809V43.9252C62.702 45.0301 62.2632 46.0898 61.4822 46.8713C60.7011 47.6529 59.6417 48.0923 58.5367 48.093Z" />
<path class="st1" d="M74.7091 38.1091C73.6035 38.1091 72.5431 37.67 71.761 36.8885C70.979 36.1069 70.5393 35.0468 70.5386 33.9412V30.4644C70.566 29.3769 71.0173 28.3432 71.7962 27.5837C72.5751 26.8242 73.6199 26.3992 74.7078 26.3992C75.7956 26.3992 76.8404 26.8242 77.6193 27.5837C78.3982 28.3432 78.8495 29.3769 78.877 30.4644V33.9412C78.877 35.0466 78.4379 36.1067 77.6562 36.8883C76.8746 37.67 75.8145 38.1091 74.7091 38.1091Z" />
<path class="st1" d="M11.4018 38.1104C10.2964 38.1104 9.23626 37.6713 8.45463 36.8896C7.673 36.108 7.23389 35.0479 7.23389 33.9425V30.4657C7.23389 29.3603 7.673 28.3002 8.45463 27.5186C9.23626 26.737 10.2964 26.2979 11.4018 26.2979C12.5072 26.2979 13.5673 26.737 14.3489 27.5186C15.1305 28.3002 15.5696 29.3603 15.5696 30.4657V33.9425C15.5696 35.0479 15.1305 36.108 14.3489 36.8896C13.5673 37.6713 12.5072 38.1104 11.4018 38.1104Z" />
<path class="st0" d="M27.5722 48.093C26.4668 48.093 25.4067 47.6539 24.625 46.8723C23.8434 46.0907 23.4043 45.0305 23.4043 43.9252V20.4809C23.4043 19.3755 23.8434 18.3154 24.625 17.5337C25.4067 16.7521 26.4668 16.313 27.5722 16.313C28.6776 16.313 29.7377 16.7521 30.5193 17.5337C31.3009 18.3154 31.74 19.3755 31.74 20.4809V43.9252C31.74 44.4725 31.6322 45.0145 31.4228 45.5201C31.2133 46.0258 30.9063 46.4853 30.5193 46.8723C30.1323 47.2593 29.6728 47.5663 29.1671 47.7758C28.6615 47.9852 28.1195 48.093 27.5722 48.093Z" />
<path class="st2" d="M85.0915 17.7493C79.6065 12.2343 73.0821 7.86198 65.896 4.88534C58.7099 1.90871 51.0048 0.386875 43.2267 0.40793C42.1213 0.40793 41.0612 0.847044 40.2795 1.62867C39.4979 2.4103 39.0588 3.47042 39.0588 4.5758V55.494C27.0389 54.5378 15.7577 49.3125 7.25484 40.763C6.47303 39.9811 5.41267 39.5419 4.30702 39.5419C3.20138 39.5419 2.14102 39.9811 1.35921 40.763C0.577399 41.5448 0.138184 42.6051 0.138184 43.7108C0.138184 44.8164 0.577399 45.8768 1.35921 46.6586C6.84463 52.1737 13.3694 56.5462 20.556 59.5228C27.7425 62.4994 35.4481 64.0212 43.2267 63.9999C44.3321 63.9999 45.3922 63.5608 46.1738 62.7792C46.9554 61.9975 47.3946 60.9374 47.3946 59.832V8.9138C59.4136 9.87067 70.6937 15.0959 79.1959 23.6449C79.9777 24.4267 81.038 24.8659 82.1437 24.8659C83.2493 24.8659 84.3097 24.4267 85.0915 23.6449C85.8733 22.8631 86.3125 21.8027 86.3125 20.6971C86.3125 19.5914 85.8733 18.5311 85.0915 17.7493Z" />
<path class="st2" d="M107.515 39.1043L114.479 38.3441C114.707 42.5731 116.935 44.5321 121.353 44.5321C124.569 44.5321 126.214 43.3652 126.214 41.1378C126.214 38.8571 124.266 38.073 119.455 36.8848C112.517 35.189 108.363 32.8977 108.363 26.7575C108.363 20.224 113.655 16.8057 120.393 16.8057C128.343 16.8057 132.825 20.4526 133.383 28.0999L126.873 28.9611C126.392 24.9341 124.343 22.882 120.444 22.882C117.304 22.882 115.784 24.3015 115.784 26.2498C115.784 28.5305 117.581 29.3917 123.378 30.936C129.585 32.6053 133.686 34.7823 133.686 40.6088C133.686 46.8367 128.747 50.6377 121.379 50.6377C113.873 50.6271 107.844 47.3842 107.515 39.1043Z" />
<path class="st2" d="M145.089 46.7248V59.7149H138.303V25.2263H144.456L144.557 29.5324C145.974 26.4171 148.608 24.7478 152.585 24.7478C159.294 24.7478 163.6 29.862 163.6 37.6634C163.6 45.5127 159.294 50.6535 152.585 50.6535C149.063 50.6455 146.583 49.258 145.089 46.7248ZM150.99 44.6489C154.687 44.6489 156.763 41.9137 156.763 37.6608C156.763 33.4557 154.687 30.8242 150.99 30.8242C147.292 30.8242 144.86 33.5593 144.86 37.6608C144.86 41.8393 147.319 44.6489 150.99 44.6489Z" />
<path class="st2" d="M166.91 37.6859C166.91 30.113 171.62 24.7437 179.698 24.7437C187.776 24.7437 192.457 30.113 192.457 37.6859C192.457 45.2587 187.747 50.644 179.698 50.644C171.65 50.644 166.91 45.28 166.91 37.6859ZM179.698 44.6208C183.369 44.6208 185.721 41.9627 185.721 37.6859C185.721 33.409 183.369 30.7961 179.698 30.7961C176.027 30.7961 173.619 33.4303 173.619 37.6859C173.619 41.9415 175.998 44.6208 179.698 44.6208Z" />
<path class="st2" d="M195.778 37.6859C195.778 30.113 200.488 24.7437 208.566 24.7437C216.644 24.7437 221.325 30.113 221.325 37.6859C221.325 45.2587 216.612 50.644 208.561 50.644C200.51 50.644 195.778 45.28 195.778 37.6859ZM208.566 44.6208C212.237 44.6208 214.592 41.9627 214.592 37.6859C214.592 33.409 212.237 30.7961 208.566 30.7961C204.896 30.7961 202.487 33.4303 202.487 37.6859C202.487 41.9415 204.864 44.6208 208.561 44.6208H208.566Z" />
<path class="st2" d="M225.447 14.8188H232.23V50.1714H225.447V14.8188Z" />
<path class="st2" d="M236.409 37.7098C236.409 30.2911 241.167 24.7437 248.665 24.7437C255.98 24.7437 260.438 29.6558 260.438 37.3297C260.442 38.0741 260.399 38.8181 260.31 39.5571H243.142C243.673 43.1775 245.651 45.078 248.841 45.078C251.879 45.078 253.625 43.9377 254.26 41.6597L259.983 42.5475C258.843 47.9142 254.64 50.6493 248.867 50.6493C240.991 50.644 236.409 45.28 236.409 37.7098ZM253.753 35.2776C253.474 31.9125 251.499 30.2273 248.665 30.2273C245.741 30.2273 243.777 31.9763 243.192 35.2776H253.753Z" />
<path class="st2" d="M264.664 25.2268H270.613L270.687 30.4181C272.083 26.4309 275.246 24.0626 279.855 24.8733V32.191C275.451 31.2793 271.397 33.2303 271.397 38.9266V50.1437H264.664V25.2268Z" />
</svg>
