<svg version="1.1" id="Layer_1" xmlns="http://www.w3.org/2000/svg" xmlns:xlink="http://www.w3.org/1999/xlink" x="0px" y="0px"
	 viewBox="0 0 180 180" style="enable-background:new 0 0 180 180;" xml:space="preserve">
<style type="text/css">
	.st0{fill:#00A4A6;}
	.st1{fill:#00ED94;}
	.st2{fill:#22577A;}
</style>
<path class="st0" d="M119.4,116.1c-4.4,0-8-3.6-8-8c0,0,0,0,0,0V63.3c0-4.4,3.6-8,8-8c4.4,0,8,3.6,8,8v44.8
	C127.3,112.6,123.8,116.1,119.4,116.1z"/>
<path class="st1" d="M150.3,97.1c-4.4,0-8-3.6-8-8v-6.6c0.1-4.4,3.7-7.9,8.2-7.8c4.3,0.1,7.7,3.5,7.8,7.8v6.6
	C158.3,93.5,154.7,97.1,150.3,97.1z M29.2,97.1c-4.4,0-8-3.6-8-8v-6.6c-0.1-4.4,3.4-8,7.8-8.1s8,3.4,8.1,7.8c0,0.1,0,0.2,0,0.4v6.6
	C37.2,93.5,33.6,97,29.2,97.1z"/>
<path class="st0" d="M60.1,116.1c-4.4,0-8-3.6-8-8V63.3c0-4.4,3.6-8,8-8c4.4,0,8,3.6,8,8v44.8C68.1,112.6,64.6,116.1,60.1,116.1
	C60.1,116.1,60.1,116.1,60.1,116.1z"/>
<path class="st2" d="M170.1,58.1C149,36.8,120.1,24.9,90.1,25c-4.4,0-8,3.6-8,8v97.4c-23-1.8-44.6-11.8-60.8-28.2
	c-3.1-3.1-8.2-3.1-11.3,0c-3.1,3.1-3.1,8.2,0,11.3l0,0c21.2,21.3,50,33.2,80.1,33.2c4.4,0,8-3.6,8-8V41.2
	c23,1.8,44.6,11.8,60.8,28.2c3.2,3,8.3,2.9,11.3-0.3C173,66,173,61.2,170.1,58.1z"/>
</svg>